<svg xmlns="http://www.w3.org/2000/svg" viewBox="0 0 256 256" width="256" height="256" role="img" aria-label="Board with a nail">
  <title>Board with a nail</title>
  <defs>
    <radialGradient id="fboard-with-a-nail" cx="50%" cy="38%" r="70%">
      <stop offset="0%" stop-color="#26312a"/>
      <stop offset="100%" stop-color="#0d110d"/>
    </radialGradient>
  </defs>
  <rect x="6" y="6" width="244" height="244" rx="26" fill="url(#fboard-with-a-nail)"/>
  <g transform="translate(128 128) scale(0.330000) translate(-256 -256)">
    <path fill="#6ee86e" d="M131.656 49.656L22.312 159l12.344 12.344 46.813-28.906 32.686-32.688-.062-.063L144 62l-12.344-12.344zm247.688 0L367 62l26.906 43.563 37.688 37.687 44.75 28.094L488.688 159 379.344 49.656zm4.906 72.688L371.094 135.5l20.687 20.688-32.81-8.594-10.97 11 21.03 21.03-33.342-8.75-10.782 10.814 21.375 21.375-33.874-8.907L87.97 418.626 66.405 472.03l53.313-21.655L416 154.095l-31.75-31.75zm-256.875.625l-31.75 31.75 10.656 10.655 21-21-8.718 33.28 10.813 10.814 21.344-21.345-8.876 33.813 10.625 10.625 21.686-21.688-9.03 34.344 45.56 45.56 31.75-31.75-115.06-115.06zm172.938 172.905l-31.75 31.75 122.75 122.75 53.375 21.563-21.657-53.313-122.717-122.75z"/>
  </g>
  <rect x="6" y="6" width="244" height="244" rx="26" fill="none" stroke="#6ee86e" stroke-width="3"/>
  <rect x="13" y="13" width="230" height="230" rx="20" fill="none" stroke="#6ee86e" stroke-opacity="0.22" stroke-width="1.5"/>
</svg>
