<svg xmlns="http://www.w3.org/2000/svg" viewBox="0 0 256 256" width="256" height="256" role="img" aria-label="Ranged Weapon Mod: Hardened Receiver">
  <title>Ranged Weapon Mod: Hardened Receiver</title>
  <defs>
    <radialGradient id="franged-weapon-mod-hardened-receiver" cx="50%" cy="38%" r="70%">
      <stop offset="0%" stop-color="#26312a"/>
      <stop offset="100%" stop-color="#0d110d"/>
    </radialGradient>
  </defs>
  <rect x="6" y="6" width="244" height="244" rx="26" fill="url(#franged-weapon-mod-hardened-receiver)"/>
  <g transform="translate(128 128) scale(0.330000) translate(-256 -256)">
    <path fill="#c96a3b" d="M322.248 85.684L61.432 224.717l-41.145 109.94 7.233 3.85 153.673 81.8 308.495-164.215-37.752-99.903-129.688-70.506zm119.035 95.187l25.11 66.45-102.56 54.594L430.39 186.64l10.893-5.77zm-89.576 47.417L284.957 343.9l-41.67 22.182 72.195-118.62 36.225-19.175zM72.38 248.78l28.21 14.933-54.012 54.012L72.38 248.78zm210.827 15.767L211.19 382.87l.26.16-17.208 9.16 5.795-83.618 83.17-44.025zm-165.334 8.312l16.963 8.98-60.445 60.445-16.93-9.012 60.413-60.414zM181.42 306.9l-6.174 89.07-54.1-28.798 60.274-60.272z"/>
  </g>
  <rect x="6" y="6" width="244" height="244" rx="26" fill="none" stroke="#c96a3b" stroke-width="3"/>
  <rect x="13" y="13" width="230" height="230" rx="20" fill="none" stroke="#c96a3b" stroke-opacity="0.22" stroke-width="1.5"/>
</svg>
